<svg width="180" height="160" viewBox="0 0 180 160" fill="none" xmlns="http://www.w3.org/2000/svg">
<rect width="180" height="160" fill="#1E1E1E"/>
<g id="Avatars - 01">
<rect width="5660" height="7270" transform="translate(-2860 -500)" fill="white"/>
<g id="facial hair/beard-short">
<path id="beard-short" fill-rule="evenodd" clip-rule="evenodd" d="M107.857 50.03L100.04 54.567C93.832 58.171 86.168 58.171 79.959 54.567L72.142 50.03C67.996 47.623 66.141 42.612 67.721 38.086L69.064 34.24C69.624 32.634 71.139 31.557 72.84 31.557H107.159C108.86 31.557 110.375 32.634 110.935 34.24L112.278 38.086C113.858 42.612 112.003 47.623 107.857 50.03ZM158.221 0L153.046 16.887C150.223 26.1 143.147 33.396 134.025 36.5L124.403 39.773L120.555 32.186C117.147 25.467 110.253 21.233 102.718 21.233H90H77.281C69.747 21.233 62.852 25.467 59.444 32.186L55.596 39.773L45.974 36.5C36.852 33.396 29.776 26.1 26.953 16.887L21.778 0C19.896 2.068 17.598 3.747 15 4.883V18.528C15 42.259 28.985 63.759 50.678 73.379L73.785 83.624C84.11 88.202 95.889 88.202 106.213 83.624L129.32 73.378C151.013 63.759 165 42.259 165 18.528V4.883C162.402 3.747 160.103 2.068 158.221 0Z" fill="#00004D"/>
</g>
</g>
</svg>
