<svg width="180" height="160" viewBox="0 0 180 160" fill="none" xmlns="http://www.w3.org/2000/svg">
<rect width="180" height="160" fill="#1E1E1E"/>
<g id="Avatars - 01">
<rect width="5660" height="7270" transform="translate(-2860 -760)" fill="white"/>
<g id="facial hair/beard-medium">
<path id="beard-medium" fill-rule="evenodd" clip-rule="evenodd" d="M107.857 50.0302L100.04 54.5672C93.8325 58.1712 86.1685 58.1712 79.9605 54.5672L72.1425 50.0302C67.9965 47.6232 66.1415 42.6122 67.7215 38.0862L69.0635 34.2402C69.6245 32.6342 71.1395 31.5572 72.8405 31.5572H107.159C108.86 31.5572 110.375 32.6342 110.935 34.2402L112.278 38.0862C113.858 42.6122 112.003 47.6232 107.857 50.0302ZM158.221 0.000183105L153.046 16.8872C150.223 26.1002 143.147 33.3962 134.025 36.5002L124.403 39.7732L120.555 32.1862C117.147 25.4672 110.253 21.2332 102.718 21.2332H90.0005H77.2815C69.7475 21.2332 62.8525 25.4672 59.4445 32.1862L55.5965 39.7732L45.9745 36.5002C36.8525 33.3962 29.7765 26.1002 26.9535 16.8872L21.7785 0.000183105C19.8965 2.06818 17.5975 3.74718 15.0005 4.88318V38.5282C15.0005 62.2592 28.9865 83.7592 50.6785 93.3792L73.7865 103.624C84.1105 108.202 95.8895 108.202 106.213 103.624L129.32 93.3792C151.013 83.7592 165 62.2592 165 38.5282V4.88318C162.402 3.74718 160.103 2.06818 158.221 0.000183105Z" fill="#00004D"/>
</g>
</g>
</svg>
