<svg width="180" height="160" viewBox="0 0 180 160" fill="none" xmlns="http://www.w3.org/2000/svg">
<rect width="180" height="160" fill="#1E1E1E"/>
<g id="Avatars - 01">
<rect width="5660" height="7270" transform="translate(-2860 -1510)" fill="white"/>
<g id="facial hair/beard-long">
<path id="beard-long" fill-rule="evenodd" clip-rule="evenodd" d="M107.485 50.0298L99.6695 54.5668C93.4605 58.1708 85.7965 58.1708 79.5875 54.5668L71.7705 50.0298C67.6245 47.6228 65.7695 42.6118 67.3495 38.0858L68.6925 34.2398C69.2535 32.6338 70.7675 31.5568 72.4675 31.5568H106.787C108.488 31.5568 110.003 32.6338 110.563 34.2398L111.906 38.0858C113.486 42.6118 111.631 47.6228 107.485 50.0298ZM157.849 -0.000244141L152.674 16.8868C149.851 26.0998 142.775 33.3958 133.653 36.4998L124.031 39.7728L120.183 32.1858C116.775 25.4668 109.88 21.2328 102.346 21.2328H89.6285H76.9095C69.3765 21.2328 62.4805 25.4668 59.0725 32.1858L55.2245 39.7728L45.6025 36.4998C36.4805 33.3958 29.4045 26.0998 26.5815 16.8868L21.4065 -0.000244141C19.1395 2.48976 16.2625 4.40576 13.0005 5.50376L20.2415 62.8348C23.0815 85.3148 33.4715 106.165 49.7115 121.968L75.6785 147.239C83.4435 154.796 95.8115 154.796 103.576 147.239L129.545 121.968C145.784 106.165 156.173 85.3148 159.013 62.8348L166.256 5.50276C162.993 4.40576 160.116 2.48976 157.849 -0.000244141Z" fill="#00004D"/>
</g>
</g>
</svg>
