<svg width="180" height="160" viewBox="0 0 180 160" fill="none" xmlns="http://www.w3.org/2000/svg">
<rect width="180" height="160" fill="#1E1E1E"/>
<g id="Avatars - 01">
<rect width="5660" height="7270" transform="translate(-2860 -2290)" fill="white"/>
<g id="facial hair/moustache-handlebar">
<path id="moustache-handlebar" fill-rule="evenodd" clip-rule="evenodd" d="M122.882 24.0229L108.386 26.4248L97.8643 21.6388C97.3293 21.3958 96.7553 21.2148 96.1503 21.1088C93.8423 20.7018 91.6043 21.4618 90.0253 22.9598C88.4453 21.4618 86.2073 20.7018 83.9003 21.1088C83.2943 21.2148 82.7203 21.3958 82.1853 21.6388L71.6633 26.4248L57.1673 24.0229C56.2163 23.8658 55.6143 25.0108 56.2843 25.7048L61.0483 30.6328C65.6663 35.4128 72.3573 37.5858 78.9033 36.4309L86.3693 35.1149C87.7963 34.8629 89.0473 34.2008 90.0253 33.2718C91.0023 34.2008 92.2533 34.8629 93.6803 35.1149L101.147 36.4309C107.693 37.5858 114.383 35.4128 119.001 30.6328L123.765 25.7048C124.435 25.0108 123.833 23.8658 122.882 24.0229Z" fill="#00004D"/>
</g>
</g>
</svg>
