<svg width="100" height="40" viewBox="0 0 100 40" fill="none" xmlns="http://www.w3.org/2000/svg">
<rect width="100" height="40" fill="#1E1E1E"/>
<g id="Avatars - 01">
<rect width="5660" height="7270" transform="translate(-1600 -1060)" fill="white"/>
<g id="eyes/cry">
<path id="eye-right" fill-rule="evenodd" clip-rule="evenodd" d="M90.0005 20C90.0005 23.866 86.8665 27 83.0005 27C79.1345 27 76.0005 23.866 76.0005 20C76.0005 16.135 79.1345 13 83.0005 13C86.8665 13 90.0005 16.135 90.0005 20Z" fill="#00004D"/>
<path id="eye-left" fill-rule="evenodd" clip-rule="evenodd" d="M24 20C24 23.866 20.866 27 17 27C13.134 27 10 23.866 10 20C10 16.135 13.134 13 17 13C20.866 13 24 16.135 24 20Z" fill="#00004D"/>
<path id="tear" fill-rule="evenodd" clip-rule="evenodd" d="M15 33.3705C15 36.1325 12.762 38.3705 10 38.3705C7.238 38.3705 5 36.1325 5 33.3705C5 30.6095 10 24.3705 10 24.3705C10 24.3705 15 30.6095 15 33.3705Z" fill="#23B2FF"/>
</g>
</g>
</svg>
