<svg width="100" height="40" viewBox="0 0 100 40" fill="none" xmlns="http://www.w3.org/2000/svg">
<rect width="100" height="40" fill="#1E1E1E"/>
<g id="Avatars - 01">
<rect width="5660" height="7270" transform="translate(-1600 -500)" fill="white"/>
<g id="eyes/default">
<path id="eye-right" fill-rule="evenodd" clip-rule="evenodd" d="M91.0005 20C91.0005 24.418 87.4185 28 83.0005 28C78.5825 28 75.0005 24.418 75.0005 20C75.0005 15.582 78.5825 12 83.0005 12C87.4185 12 91.0005 15.582 91.0005 20Z" fill="#00004D"/>
<path id="eye-left" fill-rule="evenodd" clip-rule="evenodd" d="M25 20C25 24.418 21.418 28 17 28C12.582 28 9 24.418 9 20C9 15.582 12.582 12 17 12C21.418 12 25 15.582 25 20Z" fill="#00004D"/>
</g>
</g>
</svg>
