<svg width="360" height="390" viewBox="0 0 360 390" fill="none" xmlns="http://www.w3.org/2000/svg">
<rect width="360" height="390" fill="#1E1E1E"/>
<g id="Avatars - 01">
<rect width="5660" height="7270" transform="translate(-3560 -500)" fill="white"/>
<g id="head/accessories/hat">
<path id="hat" fill-rule="evenodd" clip-rule="evenodd" d="M240.152 94.1205L229.886 72.7085C223.233 58.8295 209.208 49.9995 193.817 49.9995H166.182C150.792 49.9995 136.766 58.8295 130.113 72.7085L119.848 94.1205C61.2955 104.522 20.0005 129.65 20.0005 159.001C20.0005 187.602 59.2145 212.193 115.399 223.056C109.181 212.514 105.451 200.328 105.058 187.297C102.591 188.386 99.8695 189.001 97.0005 189.001C85.9545 189.001 77.0005 180.046 77.0005 169.001C77.0005 157.955 85.9545 149.001 97.0005 149.001C99.8465 149.001 102.548 149.604 105 150.676V147.001C105 131.069 138.578 118.154 180 118.154C221.421 118.154 255 131.069 255 147.001V150.676C257.451 149.604 260.153 149.001 263 149.001C274.046 149.001 283 157.955 283 169.001C283 180.046 274.046 189.001 263 189.001C260.131 189.001 257.408 188.386 254.941 187.297C254.548 200.328 250.818 212.514 244.599 223.056C300.785 212.193 340 187.602 340 159.001C340 129.65 298.705 104.522 240.152 94.1205Z" fill="#844123"/>
<path id="Stroke 4" d="M119.847 94.1156C138.417 90.8166 158.723 89.0006 180 89.0006C193.452 89.0006 206.516 89.7256 219 91.0946" stroke="#00004D" stroke-width="2" stroke-linecap="round" stroke-linejoin="round"/>
</g>
</g>
</svg>
