<svg width="80" height="60" viewBox="0 0 80 60" fill="none" xmlns="http://www.w3.org/2000/svg">
<rect width="80" height="60" fill="#1E1E1E"/>
<g id="Avatars - 01">
<rect width="5660" height="7270" transform="translate(-1420 -1140)" fill="white"/>
<g id="mouth/tonge">
<g id="Group 13">
<path id="Fill 7" fill-rule="evenodd" clip-rule="evenodd" d="M65.0001 9.49976C65.0001 23.3078 53.8071 34.4998 40.0001 34.4998C26.1931 34.4998 15.0001 23.3078 15.0001 9.49976H65.0001Z" fill="#AE1328"/>
<path id="Fill 9" fill-rule="evenodd" clip-rule="evenodd" d="M55.0001 17.4998H25.0001C22.2381 17.4998 20.0001 15.2618 20.0001 12.4998V9.49976H60.0001V12.4998C60.0001 15.2618 57.7621 17.4998 55.0001 17.4998Z" fill="white"/>
<path id="Fill 11" fill-rule="evenodd" clip-rule="evenodd" d="M40.0002 50.2937C32.2722 50.2937 26.0092 44.0297 26.0092 36.3027V30.2207C26.0092 25.8027 29.5912 22.2207 34.0092 22.2207H45.9912C50.4102 22.2207 53.9912 25.8027 53.9912 30.2207V36.3027C53.9912 44.0297 47.7282 50.2937 40.0002 50.2937Z" fill="#FB344F"/>
</g>
</g>
</g>
</svg>
