<svg width="360" height="390" viewBox="0 0 360 390" fill="none" xmlns="http://www.w3.org/2000/svg">
<rect width="360" height="390" fill="#1E1E1E"/>
<g id="Avatars - 01">
<rect width="5660" height="7270" transform="translate(-2400 -3440)" fill="white"/>
<g id="head/hair/long/07">
<path id="long-07" fill-rule="evenodd" clip-rule="evenodd" d="M94.9999 145C94.9999 98.0558 133.056 59.9998 180 59.9998C226.944 59.9998 265 98.0558 265 145C265 146.375 264.955 147.738 264.886 149.096C264.264 149.037 263.637 149 263 149C257.382 149 252.313 151.324 248.68 155.054C229.801 146.473 214.047 132.222 203.639 114.44C179.359 137.652 147.295 152.781 111.759 155.536C108.102 151.529 102.853 149 96.9999 149C96.3639 149 95.7359 149.037 95.1159 149.096C95.0469 147.738 94.9999 146.375 94.9999 145ZM97.0001 188.999C99.8601 188.999 102.575 188.389 105.035 187.307C105.732 210.345 116.832 230.756 133.782 244.043C125.168 259.108 108.955 269.268 90.3591 269.268C62.7451 269.268 40.3591 246.882 40.3591 219.268C40.3591 196.244 55.9261 176.868 77.1051 171.057C78.1351 181.136 86.6481 188.999 97.0001 188.999Z" fill="#00004D"/>
</g>
</g>
</svg>
